HIERARCHY
ROOT Hips
{
  OFFSET 9.15893 95.3657 -42.7454
  CHANNELS 6 Xposition Yposition Zposition Zrotation Xrotation Yrotation
  JOINT RightUpLeg
  {
    OFFSET -8.9458 -8.66707 0.101652
    CHANNELS 3 Zrotation Xrotation Yrotation
    JOINT RightLeg
    {
      OFFSET 0 -44.4227 1.3727
      CHANNELS 3 Zrotation Xrotation Yrotation
      JOINT RightFoot
      {
        OFFSET 0.253549 -42.0924 -1.46059
        CHANNELS 3 Zrotation Xrotation Yrotation
        JOINT RightToes
        {
          OFFSET 0.04 -4.41509 8.4991
          CHANNELS 3 Zrotation Xrotation Yrotation
          End Site
          {
            OFFSET -0.08 -0.137448 9.77979
          }
        }
      }
    }
  }
  JOINT Spine
  {
    OFFSET 0 11.8905 0
    CHANNELS 3 Zrotation Xrotation Yrotation
    JOINT Spine1
    {
      OFFSET 0 25.6574 0.127663
      CHANNELS 3 Zrotation Xrotation Yrotation
      JOINT HEad
      {
        OFFSET 0 8.73416 0.011341
        CHANNELS 3 Zrotation Xrotation Yrotation
        End Site
        {
          OFFSET -0.29 12.7742 2.51395
        }
      }
      JOINT LeftShoulder1
      {
        OFFSET 8.99 -0.362252 -0.22
        CHANNELS 3 Zrotation Xrotation Yrotation
        JOINT LeftArm
        {
          OFFSET 10.2827 -0.00338 0.322123
          CHANNELS 3 Zrotation Xrotation Yrotation
          JOINT LeftForeArm
          {
            OFFSET 32.7669 0.099144 -1.42434
            CHANNELS 3 Zrotation Xrotation Yrotation
            JOINT LeftHand
            {
              OFFSET 27.5643 0.085362 1.02216
              CHANNELS 3 Zrotation Xrotation Yrotation
              End Site
              {
                OFFSET 16.7443 -0.6 1.50291
              }
            }
          }
        }
      }
      JOINT RightShoulder
      {
        OFFSET -8.99 -0.362252 -0.22
        CHANNELS 3 Zrotation Xrotation Yrotation
        JOINT RightArm
        {
          OFFSET -10.2827 -0.00338 0.322123
          CHANNELS 3 Zrotation Xrotation Yrotation
          JOINT RightForeArm
          {
            OFFSET -32.8971 0.099144 -1.42434
            CHANNELS 3 Zrotation Xrotation Yrotation
            JOINT RightHand
            {
              OFFSET -27.4921 0.085362 1.02216
              CHANNELS 3 Zrotation Xrotation Yrotation
              End Site
              {
                OFFSET -16.6312 -0.6 1.50291
              }
            }
          }
        }
      }
    }
  }
  JOINT LeftUpLeg
  {
    OFFSET 8.9458 -8.66707 0.101652
    CHANNELS 3 Zrotation Xrotation Yrotation
    JOINT LeftLeg
    {
      OFFSET 0 -44.4227 1.3727
      CHANNELS 3 Zrotation Xrotation Yrotation
      JOINT LeftFoot
      {
        OFFSET -0.253549 -42.0924 -1.46059
        CHANNELS 3 Zrotation Xrotation Yrotation
        JOINT LeftToes
        {
          OFFSET -0.04 -4.41509 8.4991
          CHANNELS 3 Zrotation Xrotation Yrotation
          End Site
          {
            OFFSET 0.08 -0.047448 9.77979
          }
        }
      }
    }
  }
}
MOTION
Frames:	15
Frame Time:	0.0166667
11.3455 98.1403 -23.9109 13.2071 -5.04136 87.2458 -23.0388 -1.86925 24.2192 41.2671 21.4264 -48.1834 -11.29 -1.22178 -0.882239 0.0462048 0.000533403 0.662642 -7.44526 13.9847 15.2245 0.0130583 0.01408 -0.082571 -1.00557 -6.3955 0.500948 2.20695e-032 -7.95139e-016 1.59028e-015 -71.0144 -42.6933 -9.30044 -101.435 -23.3154 -89.6336 -59.157 15.5917 6.30623 9.53659 -2.40485 -18.2655 119.411 -2.24878 67.3739 64.5711 54.0032 56.396 1.64694 28.818 10.5779 35.5328 0.226108 -21.2026 -36.4215 22.5586 77.7847 -11.5005 -1.5789 -0.483212 -1.3333e-009 1.56019e-007 -4.86262e-009 
11.2895 97.4605 -25.4317 13.3314 -6.36001 84.4911 -23.7907 -5.63959 21.9071 48.0335 23.1301 -56.072 -12.2092 -0.697645 -1.08541 0.0462048 0.000533403 0.662642 -4.90399 14.1877 11.0046 0.00359952 0.01408 -0.0696603 -0.47334 -6.0561 5.89295 -1.37935e-033 -1.98785e-016 -3.97569e-016 -69.1859 -51.6432 -16.0796 -101.648 -21.7337 -84.1577 -58.2526 16.2018 2.48324 8.95254 -1.73923 -13.1953 119.417 -2.65086 66.6491 64.4507 54.7033 56.5749 8.28829 24.368 7.94756 34.6329 1.87363 -23.3719 -35.6126 22.3405 77.0748 -14.1471 -1.58463 -0.707617 -1.3333e-009 1.56019e-007 -4.86262e-009 
11.1443 96.8296 -27.0504 13.5085 -7.47633 82.1432 -24.4917 -9.22945 18.1753 53.1325 25.6534 -60.0816 -17.7154 -0.317602 -1.5462 0.0462048 0.000533403 0.662642 -2.53701 14.102 5.5276 -0.0108391 0.01408 -0.0587492 0.044659 -5.18766 12.1844 2.75869e-033 -9.93923e-017 1.59028e-015 -66.0102 -60.5886 -21.1813 -103.241 -19.4075 -80.5596 -58.6333 17.6249 -0.860962 8.11284 -0.594484 -7.19103 119.319 -2.90609 66.2013 64.2481 54.8119 56.8015 4.6796 25.7599 9.93016 33.7497 3.21083 -25.4087 -35.2851 22.0309 77.2101 -16.3515 -1.64517 -0.923191 -1.3333e-009 1.56019e-007 -4.8626e-009 
10.9456 96.3108 -28.6923 13.7541 -8.3731 80.2074 -25.3822 -12.13 14.4539 57.0331 28.3147 -62.0215 -19.9673 0.335357 -1.72974 0.0462048 0.000533403 0.662642 -0.803451 13.9393 -0.587628 -0.02917 0.01408 -0.0536893 0.71601 -4.08484 18.8458 5.51738e-033 -1.98785e-016 1.59028e-015 -59.8199 -68.7287 -24.0231 -105.028 -18.0781 -79.5237 -57.4566 18.1212 -5.30825 7.33287 0.574985 -0.736175 119.161 -3.04082 65.9528 64.0168 54.5845 56.9427 8.82191 23.303 8.49316 32.9187 4.35824 -27.3067 -35.2312 21.4981 77.9359 -18.1364 -1.6923 -1.09869 -1.3333e-009 1.56019e-007 -4.86261e-009 
10.7033 95.9159 -30.3344 14.0753 -9.02036 78.6634 -26.1312 -14.3517 10.7683 59.7944 31.0423 -62.4296 -23.0137 0.804041 -1.94051 0.0462048 0.000533403 0.662642 0.373614 13.7182 -6.00912 -0.0189658 0.01408 0.0474505 1.20853 -2.82317 24.4497 1.59028e-015 3.97569e-016 6.36111e-015 -50.2133 -74.6159 -23.3955 -105.512 -20.0199 -81.1176 -40.1913 18.8462 -8.45477 6.3788 1.54229 4.7616 119.096 -3.0687 65.9611 63.7064 53.9867 57.0502 6.98554 24.079 9.7635 32.2895 5.40933 -29.0538 -35.716 19.7296 81.1568 -18.6133 -1.78026 -1.24774 -1.3333e-009 1.56019e-007 -4.86261e-009 
10.4483 95.5844 -31.9479 14.4659 -9.42531 77.4788 -26.8941 -15.9221 7.25897 61.7004 33.8229 -61.8098 -24.9806 1.13011 -2.0532 0.0462048 0.000533403 0.662642 1.03891 13.4831 -10.7429 -0.017645 0.01408 0.0522604 1.55142 -1.5242 29.2616 0 0 -3.18055e-015 -37.6928 -78.4453 -20.3548 -105.055 -22.9951 -84.7644 -53.7448 19.6815 -8.88352 5.57082 2.40082 9.59563 118.896 -3.03123 66.1543 63.3305 53.2723 57.1411 9.58795 22.5956 9.06885 32.44 6.68463 -29.6893 -36.6018 17.2004 85.0088 -18.1197 -1.93695 -1.32911 -1.3333e-009 1.56019e-007 -4.86262e-009 
10.2146 95.2914 -33.5131 14.9102 -9.61262 76.609 -27.1725 -16.9955 3.90627 62.9842 37.0991 -57.0118 -30.0169 1.57223 -2.06346 0.0462048 0.000533403 0.662642 1.26321 13.2708 -14.7938 -0.0163928 0.01408 0.0515504 1.7423 -0.296013 33.28 -7.95139e-016 7.95139e-016 -3.18055e-015 -27.121 -80.6948 -19.9495 -103.496 -27.0228 -89.9412 -27.6639 15.449 -12.7131 4.8826 3.19435 13.7951 118.585 -3.00826 66.512 62.8765 52.4849 57.2986 8.63928 22.8632 9.99939 33.1946 8.14422 -29.3101 -37.9097 14.2166 89.2137 -16.9206 -2.11761 -1.34433 -1.3333e-009 1.56019e-007 -4.86263e-009 
10.0064 95.0957 -34.9966 15.3879 -9.62544 75.9987 -27.9408 -17.5474 0.973083 63.73 40.2126 -53.3202 -29.1484 1.15792 -2.21724 0.0462048 0.000533403 0.662642 1.05985 12.8573 -17.7583 -0.0150297 0.01408 0.0469104 1.80754 1.04498 36.1975 -6.62086e-032 3.97569e-016 9.54166e-015 -27.0777 -82.081 -30.1009 -99.7247 -35.9602 -92.5812 -30.6754 15.1036 -8.51484 4.00448 4.41514 17.0629 118.425 -2.87706 67.2444 62.3697 51.7398 57.4903 10.3465 21.8436 9.67221 34.1536 9.78311 -27.9719 -39.1047 11.9215 91.4593 -15.9894 -2.04237 -1.23707 -1.3333e-009 1.56019e-007 -4.86263e-009 
9.86201 94.8763 -36.3802 15.8798 -9.51202 75.5969 -28.4468 -17.7146 -1.63206 63.5049 42.9688 -49.9174 -30.5647 1.09402 -2.19363 0.0462048 0.000533403 0.662642 0.522755 12.3748 -19.6819 -0.0132697 0.01774 0.0414503 1.81057 2.35691 38.1281 7.95139e-016 -3.97569e-016 -3.18055e-015 -26.4988 -82.7391 -35.6773 -96.2566 -43.2033 -93.0842 -18.592 12.9704 -11.4026 3.39242 5.59692 19.4087 118.062 -2.83521 67.8594 61.8205 51.0422 57.7322 9.91171 21.826 10.2768 35.2826 11.3934 -25.7584 -40.6832 10.4263 92.1872 -15.2948 -1.94386 -1.17116 -1.3333e-009 1.56019e-007 -4.86261e-009 
9.77244 94.7255 -37.6653 16.3845 -9.30859 75.3779 -28.8656 -17.0511 -2.69426 62.5214 44.1414 -46.8046 -30.2623 0.864758 -2.1733 0.0462048 0.000533403 0.662642 -0.815208 12.3541 -19.384 -0.0653592 0.0369101 0.126782 2.61017 3.26679 37.9524 -7.95139e-016 7.95139e-016 -6.36111e-015 -36.3781 -82.5655 -49.1711 -93.1883 -46.911 -92.1402 -22.1969 12.9038 -8.45276 3.94473 6.40352 19.5623 117.488 -2.79178 68.237 61.2714 50.4844 58.0203 10.9759 21.1296 10.1261 36.0609 12.8616 -23.7494 -42.2697 9.24102 92.5734 -14.8027 -1.74759 -1.08887 -1.3333e-009 1.56019e-007 -4.86261e-009 
9.7234 94.6364 -38.8353 16.9047 -9.03588 75.3282 -29.0995 -15.8066 -2.38099 61.1144 43.8048 -44.1188 -30.335 0.674098 -2.16298 0.0462048 0.000533403 0.662642 -2.64325 12.7126 -17.1946 -0.0536892 0.0386701 0.114731 3.88036 3.75873 36.1451 7.95139e-016 0 -0 -68.706 -83.2384 -79.9905 -82.9217 -48.2611 -82.0998 -1.87757 18.4352 -13.1343 5.28894 6.85169 17.9466 116.718 -2.72908 68.3297 60.7293 50.1059 58.3837 10.687 21.0435 10.5046 36.601 14.1342 -21.9543 -43.8529 8.40936 92.6914 -14.5551 -1.51721 -1.01573 -1.3333e-009 1.56019e-007 -4.86261e-009 
9.67988 94.6334 -39.8771 17.4392 -8.70417 75.4409 -29.3194 -14.1781 -0.852367 59.7212 42.1135 -42.1707 -29.9189 0.449591 -2.14955 0.0462048 0.000533403 0.662642 -4.77681 13.348 -13.4239 -0.0443693 0.0389201 0.0970211 5.50665 3.7518 32.9098 1.59028e-015 -1.59028e-015 -6.36111e-015 -101.362 -81.4076 -107.928 -70.798 -46.3026 -69.7368 -24.6758 8.99553 -13.2694 7.28449 6.82885 14.7484 115.786 -2.63155 68.1044 60.2095 49.9658 58.8175 11.2227 20.5995 10.4678 36.9541 15.1949 -20.3712 -45.3031 7.92135 92.5864 -14.5401 -1.26583 -0.948735 -1.3333e-009 1.56019e-007 -4.86262e-009 
9.61138 94.7234 -40.782 17.9777 -8.32137 75.711 -29.5399 -12.3247 1.72397 58.5793 39.2337 -41.1433 -29.5985 0.221905 -2.14026 0.0462048 0.000533403 0.662642 -7.12102 14.1866 -8.35565 -0.0377695 0.0419601 0.0790909 7.33717 3.17159 28.5307 1.59028e-015 0 6.36111e-015 -114.195 -77.894 -114.469 -66.3519 -39.5963 -64.5361 3.42745 17.2081 -15.8599 9.75032 6.20043 10.2538 114.718 -2.49811 67.5446 59.7286 50.0859 59.3445 10.9318 20.5304 10.7294 37.1675 16.0192 -18.9925 -46.5432 7.74294 92.3102 -14.7259 -1.02338 -0.889534 -1.3333e-009 1.56019e-007 -4.86262e-009 
9.50058 94.89 -41.5536 18.49 -7.89887 76.1259 -29.8457 -10.6904 4.08614 57.6076 36.4479 -40.6607 -29.1977 0.00574475 -2.11368 0.0462048 0.000533403 0.662642 -9.09602 14.6602 -3.54253 0.00733983 0.00854998 -0.0288502 8.59593 2.67371 24.4433 3.18055e-015 7.95139e-016 -0 -115.658 -75.6131 -108.332 -67.0294 -31.1613 -64.2481 -8.91991 8.41834 -13.23 11.3044 5.90301 6.06062 114.039 -2.28679 67.1067 59.3295 50.3879 59.9076 11.1548 20.273 10.7577 37.2805 16.5766 -17.7913 -47.5372 7.82385 91.9109 -15.0682 -0.822446 -0.842427 -1.3333e-009 1.56019e-007 -4.86262e-009 
9.34782 95.1137 -42.2044 18.945 -7.45096 76.6742 -30.1716 -9.26299 6.22086 56.7772 33.8061 -40.5668 -28.853 -0.190502 -2.07694 0.0462048 0.000533403 0.662642 -10.8015 15.0242 0.571743 0.0089898 0.00691997 -0.0327802 9.54703 2.09414 20.9221 -0 -7.95139e-016 -0 -113.423 -73.2314 -101.524 -62.9538 -28.159 -60.6941 -5.6599 12.7318 -17.0745 12.5016 5.63839 2.44902 113.505 -2.1123 66.7015 59.0231 50.753 60.4639 10.9475 20.2475 10.9053 37.3007 16.8654 -16.7338 -48.238 8.10576 91.414 -15.5272 -0.664115 -0.803842 -1.3333e-009 1.56019e-007 -4.86262e-009 
